<svg width="560" height="617" viewBox="0 0 560 617" fill="none" xmlns="http://www.w3.org/2000/svg">
<g filter="url(#filter0_d_19_29)">
<g filter="url(#filter1_b_19_29)">
<path d="M304.057 22.2247C438.852 34.0177 541.965 171.35 528.223 328.427C514.48 485.505 382.847 605.311 248.052 593.518" stroke="url(#paint0_radial_19_29)" stroke-opacity="0.9" stroke-width="14"/>
<path d="M304.057 22.2247C438.852 34.0177 541.965 171.35 528.223 328.427C514.48 485.505 382.847 605.311 248.052 593.518" stroke="url(#paint1_radial_19_29)" stroke-opacity="0.9" stroke-width="14"/>
<path d="M304.057 22.2247C438.852 34.0177 541.965 171.35 528.223 328.427C514.48 485.505 382.847 605.311 248.052 593.518" stroke="url(#paint2_radial_19_29)" stroke-opacity="0.9" stroke-width="14"/>
<path d="M304.057 22.2247C438.852 34.0177 541.965 171.35 528.223 328.427C514.48 485.505 382.847 605.311 248.052 593.518" stroke="url(#paint3_radial_19_29)" stroke-opacity="0.9" stroke-width="14"/>
<path d="M304.057 22.2247C438.852 34.0177 541.965 171.35 528.223 328.427C514.48 485.505 382.847 605.311 248.052 593.518" stroke="url(#paint4_radial_19_29)" stroke-opacity="0.9" stroke-width="14"/>
</g>
<path d="M520.004 327.708C533.738 170.731 435.67 33.9903 301.047 22.2123C166.421 10.4341 40.8578 130.625 27.1244 287.598C13.3907 444.575 111.459 581.316 246.082 593.094C380.708 604.872 506.271 484.682 520.004 327.708Z" fill="url(#paint5_linear_19_29)"/>
<path d="M520.004 327.708C533.738 170.731 435.67 33.9903 301.047 22.2123C166.421 10.4341 40.8578 130.625 27.1244 287.598C13.3907 444.575 111.459 581.316 246.082 593.094C380.708 604.872 506.271 484.682 520.004 327.708Z" stroke="url(#paint6_radial_19_29)" stroke-width="0.5"/>
<path d="M520.004 327.708C533.738 170.731 435.67 33.9903 301.047 22.2123C166.421 10.4341 40.8578 130.625 27.1244 287.598C13.3907 444.575 111.459 581.316 246.082 593.094C380.708 604.872 506.271 484.682 520.004 327.708Z" stroke="url(#paint7_linear_19_29)" stroke-opacity="0.05" stroke-width="0.5"/>
<g filter="url(#filter2_iii_19_29)">
<path d="M494.907 324.661C507.243 183.656 419.155 60.9033 298.324 50.332C177.487 39.7601 61.4642 150.382 49.1286 291.379C36.7923 432.383 124.881 555.136 245.711 565.708C366.549 576.28 482.571 465.657 494.907 324.661Z" stroke="url(#paint8_linear_19_29)" stroke-opacity="0.15"/>
<path d="M494.907 324.661C507.243 183.656 419.155 60.9033 298.324 50.332C177.487 39.7601 61.4642 150.382 49.1286 291.379C36.7923 432.383 124.881 555.136 245.711 565.708C366.549 576.28 482.571 465.657 494.907 324.661Z" stroke="url(#paint9_linear_19_29)" stroke-opacity="0.25"/>
</g>
<path d="M279.203 128.463L356.7 321.201L252.349 312.071L177.235 301.484L279.203 128.463Z" fill="#9C7F47"/>
<g filter="url(#filter3_i_19_29)">
<path d="M280.046 125.525L360.208 321.257L252.619 311.844L252.876 311.866L280.046 125.525Z" fill="#FFFEA1"/>
</g>
<path d="M279.203 128.463L356.7 321.201L252.349 312.071L252.598 312.093L279.203 128.463Z" fill="#FFFEA1"/>
<path d="M259.519 370.669L177.257 301.235L252.707 310.848L356.722 320.951L259.519 370.669Z" fill="#CFAD63"/>
<path d="M259.519 370.669L252.707 310.848L252.707 310.848L356.722 320.951L259.519 370.669Z" fill="#D6B163"/>
<path d="M263.312 391.769L170.528 316.396L246.817 486.231L263.312 391.769Z" fill="#FBD647"/>
<path d="M248.697 394.343L172.263 321.404L244.618 481.331L248.697 394.343Z" fill="#D0AE66"/>
<path d="M248.809 395.55L358.185 338.646L244.723 485.818L248.809 395.55Z" fill="#785015"/>
<path d="M249.013 394.371L350.375 343.01L244.898 481.356L249.013 394.371Z" fill="#4F4021"/>
</g>
<defs>
<filter id="filter0_d_19_29" x="20.5913" y="15.2513" width="520.858" height="601.07" filterUnits="userSpaceOnUse" color-interpolation-filters="sRGB">
<feFlood flood-opacity="0" result="BackgroundImageFix"/>
<feColorMatrix in="SourceAlpha" type="matrix" values="0 0 0 0 0 0 0 0 0 0 0 0 0 0 0 0 0 0 127 0" result="hardAlpha"/>
<feOffset dy="10"/>
<feGaussianBlur stdDeviation="2.5"/>
<feComposite in2="hardAlpha" operator="out"/>
<feColorMatrix type="matrix" values="0 0 0 0 0 0 0 0 0 0 0 0 0 0 0 0 0 0 0.25 0"/>
<feBlend mode="normal" in2="BackgroundImageFix" result="effect1_dropShadow_19_29"/>
<feBlend mode="normal" in="SourceGraphic" in2="effect1_dropShadow_19_29" result="shape"/>
</filter>
<filter id="filter1_b_19_29" x="212.442" y="-19.7487" width="359.007" height="656.07" filterUnits="userSpaceOnUse" color-interpolation-filters="sRGB">
<feFlood flood-opacity="0" result="BackgroundImageFix"/>
<feGaussianBlur in="BackgroundImage" stdDeviation="17.5"/>
<feComposite in2="SourceAlpha" operator="in" result="effect1_backgroundBlur_19_29"/>
<feBlend mode="normal" in="SourceGraphic" in2="effect1_backgroundBlur_19_29" result="shape"/>
</filter>
<filter id="filter2_iii_19_29" x="43.4762" y="45.1324" width="457.083" height="525.775" filterUnits="userSpaceOnUse" color-interpolation-filters="sRGB">
<feFlood flood-opacity="0" result="BackgroundImageFix"/>
<feBlend mode="normal" in="SourceGraphic" in2="BackgroundImageFix" result="shape"/>
<feColorMatrix in="SourceAlpha" type="matrix" values="0 0 0 0 0 0 0 0 0 0 0 0 0 0 0 0 0 0 127 0" result="hardAlpha"/>
<feOffset dx="4" dy="-6"/>
<feGaussianBlur stdDeviation="2"/>
<feComposite in2="hardAlpha" operator="arithmetic" k2="-1" k3="1"/>
<feColorMatrix type="matrix" values="0 0 0 0 0.316667 0 0 0 0 0.316667 0 0 0 0 0.316667 0 0 0 0.25 0"/>
<feBlend mode="normal" in2="shape" result="effect1_innerShadow_19_29"/>
<feColorMatrix in="SourceAlpha" type="matrix" values="0 0 0 0 0 0 0 0 0 0 0 0 0 0 0 0 0 0 127 0" result="hardAlpha"/>
<feOffset dx="-4" dy="6"/>
<feGaussianBlur stdDeviation="2"/>
<feComposite in2="hardAlpha" operator="arithmetic" k2="-1" k3="1"/>
<feColorMatrix type="matrix" values="0 0 0 0 0.270833 0 0 0 0 0.270833 0 0 0 0 0.270833 0 0 0 0.25 0"/>
<feBlend mode="normal" in2="effect1_innerShadow_19_29" result="effect2_innerShadow_19_29"/>
<feColorMatrix in="SourceAlpha" type="matrix" values="0 0 0 0 0 0 0 0 0 0 0 0 0 0 0 0 0 0 127 0" result="hardAlpha"/>
<feOffset dx="-4" dy="-4"/>
<feGaussianBlur stdDeviation="2"/>
<feComposite in2="hardAlpha" operator="arithmetic" k2="-1" k3="1"/>
<feColorMatrix type="matrix" values="0 0 0 0 0.270833 0 0 0 0 0.270833 0 0 0 0 0.270833 0 0 0 0.25 0"/>
<feBlend mode="normal" in2="effect2_innerShadow_19_29" result="effect3_innerShadow_19_29"/>
</filter>
<filter id="filter3_i_19_29" x="252.619" y="125.525" width="107.589" height="195.731" filterUnits="userSpaceOnUse" color-interpolation-filters="sRGB">
<feFlood flood-opacity="0" result="BackgroundImageFix"/>
<feBlend mode="normal" in="SourceGraphic" in2="BackgroundImageFix" result="shape"/>
<feColorMatrix in="SourceAlpha" type="matrix" values="0 0 0 0 0 0 0 0 0 0 0 0 0 0 0 0 0 0 127 0" result="hardAlpha"/>
<feOffset dy="8"/>
<feComposite in2="hardAlpha" operator="arithmetic" k2="-1" k3="1"/>
<feColorMatrix type="matrix" values="0 0 0 0 1 0 0 0 0 0.756863 0 0 0 0 0.286275 0 0 0 1 0"/>
<feBlend mode="normal" in2="shape" result="effect1_innerShadow_19_29"/>
</filter>
<radialGradient id="paint0_radial_19_29" cx="0" cy="0" r="1" gradientUnits="userSpaceOnUse" gradientTransform="translate(565.99 212.277) rotate(131.521) scale(115.102 51.3348)">
<stop stop-color="#0A0505"/>
<stop offset="0.302247" stop-color="#721A31"/>
<stop offset="0.989583" stop-color="#721A31" stop-opacity="0"/>
</radialGradient>
<radialGradient id="paint1_radial_19_29" cx="0" cy="0" r="1" gradientUnits="userSpaceOnUse" gradientTransform="translate(602.609 464.93) rotate(-132.954) scale(288.175 128.524)">
<stop stop-color="#FF7070"/>
<stop offset="1" stop-color="#FF7070" stop-opacity="0"/>
</radialGradient>
<radialGradient id="paint2_radial_19_29" cx="0" cy="0" r="1" gradientUnits="userSpaceOnUse" gradientTransform="translate(466.773 589.063) rotate(-89.7802) scale(144.001 64.2234)">
<stop stop-color="#FF7070"/>
<stop offset="1" stop-color="#FF7070" stop-opacity="0"/>
</radialGradient>
<radialGradient id="paint3_radial_19_29" cx="0" cy="0" r="1" gradientUnits="userSpaceOnUse" gradientTransform="translate(609.987 437.97) rotate(-138.444) scale(219.103 188.948)">
<stop offset="0.00401228" stop-color="#311288"/>
<stop offset="0.317708" stop-color="#6EF2E6"/>
<stop offset="0.713542" stop-color="#F3F34E"/>
<stop offset="1" stop-color="#CCFFFA" stop-opacity="0"/>
</radialGradient>
<radialGradient id="paint4_radial_19_29" cx="0" cy="0" r="1" gradientUnits="userSpaceOnUse" gradientTransform="translate(400.579 318.766) rotate(-79.1304) scale(268.91 119.932)">
<stop stop-color="#767676"/>
<stop offset="1" stop-color="white" stop-opacity="0"/>
</radialGradient>
<linearGradient id="paint5_linear_19_29" x1="521.041" y1="417.676" x2="-110.459" y2="201.176" gradientUnits="userSpaceOnUse">
<stop stop-color="#010101" stop-opacity="0"/>
<stop stop-opacity="0.9"/>
<stop offset="0.459707" stop-color="#363636" stop-opacity="0.971584"/>
<stop offset="0.827067" stop-color="#0A0A0A" stop-opacity="0.995031"/>
<stop offset="1" stop-color="#010101"/>
<stop offset="1" stop-color="white" stop-opacity="0"/>
</linearGradient>
<radialGradient id="paint6_radial_19_29" cx="0" cy="0" r="1" gradientUnits="userSpaceOnUse" gradientTransform="translate(-68.9106 114.57) rotate(30.9442) scale(371.433 320.312)">
<stop stop-color="#343434"/>
<stop offset="1" stop-color="#A4A4A4" stop-opacity="0"/>
</radialGradient>
<linearGradient id="paint7_linear_19_29" x1="245.671" y1="305.213" x2="812.03" y2="107.823" gradientUnits="userSpaceOnUse">
<stop stop-color="#3D3F3E"/>
<stop offset="1" stop-color="#606261"/>
</linearGradient>
<linearGradient id="paint8_linear_19_29" x1="-195.808" y1="538.122" x2="417.774" y2="403.864" gradientUnits="userSpaceOnUse">
<stop stop-color="#58CBC2" stop-opacity="0.25"/>
<stop offset="1" stop-color="white" stop-opacity="0"/>
</linearGradient>
<linearGradient id="paint9_linear_19_29" x1="636.583" y1="271.655" x2="248.819" y2="342.816" gradientUnits="userSpaceOnUse">
<stop stop-color="#3D3F3B"/>
<stop offset="1" stop-color="#EBEBEB" stop-opacity="0.33"/>
</linearGradient>
</defs>
</svg>
